<?xml version="1.0" encoding="utf-8"?>
<!-- Generator: Adobe Illustrator 24.2.3, SVG Export Plug-In . SVG Version: 6.00 Build 0)  -->
<svg version="1.1" id="Layer_1" xmlns="http://www.w3.org/2000/svg" xmlns:xlink="http://www.w3.org/1999/xlink" x="0px" y="0px"
	 viewBox="0 0 190 100" style="enable-background:new 0 0 190 100;" xml:space="preserve">
<style type="text/css">
	.st0{fill:#EC1D24;}
</style>
<g>
	<g>
		<path d="M55.7,86c-0.7-0.4-2-1.5-2.4-2.3c-0.9-2.2,1.6-4.7,4.9-8.3c1.2-1.4,3-2.9,5.2-4.7c0.2-0.2,0.2-0.5,0.1-0.7
			c-0.2-0.2-0.5-0.2-0.7-0.1c-2.2,1.8-3.9,3.5-5.3,4.8c-4.4,4.1-7,7.7-4.9,10.2c0.9,1,1.8,1.5,2.6,2c1.1,0.6,1.1,1.1,1,1.5
			c-0.2,0.5-0.4,0.3-1.1,0.6c-0.9,0.3-2.1,0-3,1.5c-0.2,0.4-0.3,1.2-0.1,1.3c0.1,0.1,0.2,0.1,0.3,0.1c0.2,0,0.3,0,0.4-0.2
			c1-1.2,1.9-1.5,2.8-1.9c0.8-0.3,1.6-0.6,1.9-1.6C57.7,87.1,56.7,86.5,55.7,86"/>
		<path d="M151.5,25.1c-0.4-0.5-1.9-1.4-3.8-2.6c-0.6-0.4-1.2-0.7-1.5-0.9c0-0.2,0-0.4-0.1-0.7c-0.1-0.8-0.1-1.8-0.4-2.5
			c-0.5-1-2.2-2.2-3.7-2.4c-0.4-0.1-0.9-0.1-1.4-0.2c-1.1-0.1-2.6-0.3-3.1-0.5c-0.8-0.4-4.9-1.3-5.1-1.3c-0.5,0-0.9,0.1-1.3,0.2
			c-0.7,0.1-1.3,0.4-1.9,0.7c-0.5,0.3-2.8,0.9-4.8,1.5l0,0c-0.9,0.3-1.8,0.5-2.7,0.8c-3.2,0.9-29.1,7.7-35.7,7.4
			c-3.1-0.1-6.3-1.1-10-2.2c-4.1-1.2-8.8-2.6-14.2-3c-4.3-0.3-8.1,0.5-12.1,1.4c-5.4,1.2-18.2,7.6-27.6,8.8c-23.3,3.4-24-8.3-7-14.3
			c3.6-1.3,7.6-2.4,6.9-5.9c-0.1-1.2-0.9-2.3-1.7-2.8c-1-0.6-2.1,0.3-1.3,1.3c0.5,0.6,0.9,1,1.1,1.8c0.5,1.5-0.6,3.2-5.3,4.6
			c-17.3,5.8-19.2,20.2,8.5,16.2c14.2-2.7,21.2-7.1,27-8.3c4.1-0.9,7.6-1.7,11.6-1.3c5.2,0.4,9.8,1.8,13.9,2.9
			c3.6,1.1,7.1,2.1,10.4,2.2c0.2,0,0.3,0,0.5,0c7.8,0,33.6-6.9,35.6-7.5c0.9-0.3,1.8-0.5,2.7-0.8l0,0c2.7-0.8,4.5-1.3,5-1.6
			c0.5-0.3,1.3-0.6,2.6-0.7c0.2,0,3.9,0.5,4.6,0.8c0.7,0.3,2,0.5,3.4,0.6c0.5,0.1,1,0.1,1.4,0.2c1.2,0.2,2.6,1.2,2.9,1.8
			c0.2,0.4,0.3,1.4,0.3,2.1c0.1,0.7,0.1,1,0.2,1.2c0.1,0.2,0.3,0.3,1.8,1.2c1.1,0.7,2.8,1.7,3.4,2.2c-0.2,0.1-0.4,0.2-0.6,0.4
			c-0.2,0.2-0.3,0.3-0.5,0.4s-0.5,0.1-0.8,0.1c-0.2,0-0.5,0-0.5,0.2c-0.1,0.1,0.1,0.3,0.2,0.4c0.3,0.2,0.7,0.2,0.9,0.5
			c0.4,0.3,0.4,0.8,0.4,1.2c-0.1,0.2-0.3,0.5-0.4,0.7c-0.1,0.1-0.2,0.3-0.2,0.4c-0.4,0.3-1.4,0.4-1.6,0.6c-0.2,0.1-0.6,0.2-1,0.2
			c-0.1,0-0.3,0-0.4,0c-0.2,0-0.6-0.1-0.8-0.2c-0.1-0.1-0.2-0.2-0.3-0.5c-0.1-0.4-0.2-0.8-0.5-1c-0.2-0.2-0.4-0.3-0.5-0.5
			s0.1-0.3,0.2-0.4c0.2-0.3,0.3-0.7,0.6-1.1c0,0,0-0.1,0.1-0.1c0.2-0.4,0.5-0.7,0.7-1.1s-1.4-2.5-1.9-3.1c0.1-0.5,0-1.2-0.4-1.6
			c-0.3-0.2-0.4-0.1-0.7,0.1c-0.6,0.5-1.3,0.8-2,1.1c-0.3,0.1-0.7,0.4-0.2,0.6c1.3,0.5,2.4,0.5,3,0.5c0.2,0.2,1,0.8,1.2,2
			c0.1,0.4-0.1,0.7-0.2,1c-0.2,0.4-0.4,0.8-0.7,1.2c-0.2,0.3-0.8,0.8-0.7,1.2c0,0.1,0.2,0.2,0.3,0.3c0.1,0.2,0.1,0.4,0.1,0.6
			c-0.1,0.6-0.8,0.6-1.3,0.7c-0.3,0.1-0.7,0.2-0.3,0.5c0.5,0.3,1,0.6,1.5,0.6l0,0l0,0c0.3,0,0.6-0.1,0.9-0.1c0.3,0,0.7,0,1.1,0
			c0.1,0.1,0.2,0.1,0.3,0.1c0.5,0.1,1.1-0.4,1.5-0.5c0.3-0.1,1-0.3,1.5-0.5c-1.2,1.8-2.5,3-3.6,3c-1.5-0.1-2.8-0.7-3.4-1l-0.1-0.1
			c-0.6-0.3-2.6-0.8-3.1-0.8l0,0l0,0l0,0c-0.6,0-3.7,1.2-4.7,1.5s-3.2,0.3-3.6,0.4c-0.2,0-2.5,0.6-5.5,1.5c0,0,0,0-0.1,0
			c-4.1,1.3-9.5,3.3-12,5.7c-0.9,0.9-2.8,3-3.7,3.9c-3.5,3.4-3.3,3.3-6.7,6c-0.4,0.4-0.3,0.8-0.2,1c0.2,0.3,0.6,0.3,1.1-0.1
			c3.4-2.7,3.2-2.5,6.7-5.9c1-0.9,2.8-3,3.7-3.9c4-3.8,16.4-6.8,16.8-6.8c0.5-0.1,2.7-0.5,4-1c0.2-0.1,3.8-1.4,4.2-1.4
			s1.1,0.1,1.8,0.2c0.4,0.1,0.7,0.1,0.8,0.2l0.1,0.1c0.5,0.2,1.6,0.7,2.9,1c0.3,0.1,0.6,0.1,0.9,0.1c0.1,0,0.1,0,0.2,0
			c2.2,0,4.1-2.5,5-4.1C151.3,28.1,152.4,26.3,151.5,25.1"/>
		<path d="M125.5,32.8c-0.2,0.4,0.1,0.6,0.3,0.7c0.3,0.2,0.4,0.2,0.8,0.1c0.5-0.2,0.8-0.5,1.1-0.6c0.4-0.2,0.4,0.1,0.8-0.1
			c0.4-0.2,0.7-0.6,0.9-1c0.3-0.6,0.5-0.9,1.2-1.2c0.5-0.2,1.9-0.8,3.6-0.6c0.4,0,0.4-0.8-0.1-1.1c-0.4-0.3-1-0.5-1.5-0.4
			c-0.9,0.1-1.7,0.4-2.5,1c-0.4,0.3-0.7,0.6-1,0.9c-0.5,0.5-1.5,2.2-2.2,2.3C126.3,33.1,126,32.4,125.5,32.8"/>
		<path d="M132,23.8c-3,2-2.3,2.3-4.7,4.9c-0.2,0.3-0.2,0.4-0.2,0.8c0,0.2,0.3,0.2,0.4,0.1c0.2-0.2,0.4-0.4,0.6-0.6
			c1.1-1,1.8-3,4.1-4.3c0.4-0.3,0.8-0.7,1-0.9c0.1-0.2,0.7-1.2-0.8-1.8c-0.2-0.2-0.2-0.5-0.1-0.7c0.4,0.4,0.5-0.1,1,0
			c0.4,0.1,0.2,0.2,0.7,0.3c1.4,0.1,1.5-0.9,1.6-1.2c0.2-0.7-0.6-1.3-1-0.4c-0.1,0.3-0.3,0.2-0.5,0.2c-0.1,0-2.5-0.8-2.8-1.7
			c0-0.1,0.3-0.5,0.2-0.6c-0.3,0-1.4,0.1-1,1.2c0.1,0.4,1,1.3,1,1.9c0,2,1.5,1.8,1.3,2.1C132.6,23.4,132,23.8,132,23.8"/>
		<path d="M68.5,32c2.5,2.3,3.3,6.3,3.3,7.6c0,2-0.6,3.1-0.8,3.6c-0.1,0.3-0.5,0.3-0.3-0.1c0.3-0.8,0.5-3.1,0-4.6
			c-0.9-2.7-1.8-4.2-3.3-5.8c-1.8-1.8-5-2.8-5.4-2.9s-0.3-0.7,0.2-0.5C62.6,29.3,66.4,30,68.5,32"/>
		<path d="M53.9,49.3c7.8,2.7,5.6,6.8,7.1,8.8c1.7,2.2,2.7-0.3,8.1,2.4c0.2,0.1,0.3,0.2,0.5,0.2c0.1,0,0.1,0,0.2-0.1
			c0.2-0.2,0.3-0.5,0.1-0.7c-1.5-2.2-6-1.4-7.3-1.9c-0.8-0.3-0.9-1.4-0.9-2c-0.5-3.7-2.2-5.4-4-6.4c-2.4-1.6-7.9-1.2-11.9-5.4
			c-4.5-4.7-5.2-10-6.3-13.2c0-0.2-0.2-0.7-0.9-0.8c-1.5,0.1-5.4,0.1-5.4,0.1c-0.2,0,0,0.3,0,0.3l4,0.4c0.3,0.1,1.3,0.4,1.5,1.7
			c0.3,1.8,1.1,7.8,6.1,12.5C47.9,48.2,51.4,48.3,53.9,49.3"/>
	</g>
	<path class="st0" d="M108.2,74.2l-1.6-1.5c-2,2.2-4.8,3.6-8,3.6c-5.9,0-10.7-4.8-10.7-10.7c0-5.9,4.8-10.7,10.7-10.7
		c2.8,0,5.3,1,7.2,2.8l1.4-1.7c-2.3-2-5.3-3.3-8.6-3.3c-7.1,0-12.9,5.8-12.9,12.9s5.8,12.9,12.9,12.9
		C102.5,78.5,105.9,76.8,108.2,74.2"/>
	<path class="st0" d="M131.8,74.2l-1.6-1.5c-2,2.2-4.8,3.6-8,3.6c-5.9,0-10.7-4.8-10.7-10.7c0-5.9,4.8-10.7,10.7-10.7
		c2.8,0,5.3,1,7.2,2.8l1.4-1.7c-2.3-2-5.3-3.3-8.6-3.3c-7.1,0-12.9,5.8-12.9,12.9s5.8,12.9,12.9,12.9
		C126,78.5,129.4,76.8,131.8,74.2"/>
	<path d="M71.5,67.3l4-8.4l4,8.4H71.5z M75.8,53.9h-0.6l-11,23.3h2.6l3.6-7.7h10l3.7,7.7h2.5L75.8,53.9z"/>
	<rect x="134.9" y="53.9" width="2.3" height="23.3"/>
	<polygon points="185.4,53.9 185.4,71.7 169.8,53.9 169.3,53.9 169.3,77.2 171.8,77.2 171.8,59.6 187.1,77.2 187.7,77.2 187.7,53.9 
			"/>
	<path d="M161.8,70.6c-0.9,1.5-2.1,2.7-3.6,3.6s-3.2,1.3-5,1.3c-2.7,0-5-1-6.9-2.9s-2.9-4.2-2.9-7c0-1.9,0.4-3.6,1.3-5.1
		c0.9-1.5,2.1-2.7,3.6-3.6c1.5-0.9,3.2-1.3,4.9-1.3s3.4,0.5,5,1.3c1.6,0.9,2.8,2.1,3.6,3.6c0.9,1.5,1.3,3.2,1.3,5
		C163.1,67.4,162.7,69.1,161.8,70.6 M153.1,53.3c-2.2,0-4.2,0.5-6.1,1.6c-1.9,1.1-3.4,2.6-4.4,4.5c-1.1,1.9-1.6,4-1.6,6.2
		c0,3.4,1.2,6.2,3.6,8.6c2.4,2.4,5.3,3.5,8.8,3.5c3.4,0,6.3-1.2,8.7-3.6s3.6-5.3,3.6-8.7c0-3.4-1.2-6.3-3.6-8.7
		C159.6,54.5,156.6,53.3,153.1,53.3"/>
	<polygon points="64.2,93.3 65.3,93.3 65.3,87.7 69.9,87.7 69.9,86.6 65.3,86.6 65.3,83 69.9,83 69.9,81.9 64.2,81.9 	"/>
	<rect x="76.5" y="81.9" width="1.1" height="11.5"/>
	<rect x="131.1" y="81.9" width="1.2" height="11.5"/>
	<path d="M141.8,88.5l2-4.1l1.9,4.1H141.8z M143.7,81.9l-5.4,11.4h1.3l1.8-3.8h4.9l1.8,3.8h1.2L144,81.8L143.7,81.9L143.7,81.9z"/>
	<rect x="169.4" y="81.9" width="1.2" height="11.5"/>
	<path d="M180.2,88.5l2-4.1l2,4.1H180.2z M182,81.9l-5.4,11.5h1.3l1.8-3.8h4.9l1.8,3.8h1.2l-5.3-11.5H182z"/>
	<path d="M92.5,90.4c-0.5,0.7-1.2,1.2-2,1.5c-0.6,0.2-1.7,0.3-3.3,0.3h-1.3V83h0.8c1.6,0,2.8,0.1,3.5,0.3c1,0.3,1.7,0.8,2.2,1.6
		c0.5,0.8,0.8,1.7,0.8,2.8C93.2,88.8,93,89.7,92.5,90.4 M90.8,82.3c-0.8-0.3-2-0.4-3.7-0.4h-2.4v11.5h3.6c1.4,0,2.5-0.2,3.3-0.6
		s1.4-1.1,1.9-1.9c0.5-0.9,0.7-1.9,0.7-3c0-1.3-0.3-2.5-0.9-3.4C92.8,83.4,91.9,82.7,90.8,82.3"/>
	<path d="M107.5,88.8c0,0.9,0,1.5-0.1,1.8c-0.1,0.4-0.3,0.8-0.5,1c-0.2,0.3-0.5,0.5-0.9,0.7c-0.3,0.2-0.7,0.2-1.1,0.2
		s-0.9-0.1-1.3-0.3c-0.4-0.2-0.8-0.5-1-0.8s-0.3-0.7-0.4-1.1c0-0.2,0-0.7,0-1.5v-6.9h-1.1v6.9c0,1.2,0.1,2,0.2,2.4
		c0.2,0.7,0.7,1.3,1.3,1.7c0.7,0.4,1.5,0.7,2.4,0.7c0.8,0,1.6-0.2,2.2-0.7s1-1,1.2-1.6s0.3-1.5,0.3-2.5v-6.9h-1.1L107.5,88.8
		L107.5,88.8z"/>
	<path d="M117.7,83.4c0.8-0.4,1.6-0.7,2.5-0.7c0.8,0,1.6,0.2,2.3,0.5s1.3,0.8,1.8,1.5l0.9-0.7c-0.5-0.8-1.3-1.4-2.1-1.8
		c-0.9-0.4-1.8-0.6-2.9-0.6c-1.8,0-3.2,0.6-4.4,1.7c-1.2,1.1-1.8,2.6-1.8,4.2s0.5,3,1.5,4.1c1.2,1.3,2.7,2,4.7,2
		c1.1,0,2-0.2,2.9-0.6s1.6-1,2.1-1.7l-0.9-0.7c-1.1,1.3-2.4,1.9-4,1.9c-1.5,0-2.7-0.5-3.6-1.4c-1-0.9-1.4-2.1-1.4-3.5
		c0-0.9,0.2-1.8,0.6-2.5C116.3,84.4,116.9,83.8,117.7,83.4"/>
	<path d="M156.7,86.9V83h2c0.8,0,1.3,0.1,1.7,0.2c0.3,0.1,0.6,0.4,0.8,0.7c0.2,0.3,0.3,0.7,0.3,1c0,0.4-0.1,0.8-0.3,1.1
		c-0.2,0.3-0.5,0.5-0.9,0.7c-0.4,0.1-0.9,0.2-1.7,0.2L156.7,86.9z M161,87.6c0.5-0.2,1-0.6,1.3-1.1s0.4-1,0.4-1.6
		c0-0.7-0.2-1.4-0.6-1.9c-0.4-0.5-1-0.8-1.7-1c-0.4-0.1-1.3-0.2-2.6-0.2h-2.3v11.5h1.1V88h0.7l4.1,5.3h1.4l-4.1-5.3
		C159.7,88,160.5,87.9,161,87.6"/>
</g>
</svg>
