<svg xmlns="http://www.w3.org/2000/svg" id="Layer_1" viewBox="0 0 203.7 90"><path d="M162,25.7c-.2,0-.3,0-.5.1-1.4.7-2.9.8-4.5.8-1,0-1.5-.1-2.5-.9.4,0,.7-.2,1.1-.3.8-.2,1-.6.7-1.3-.3-.5,0-.8.2-1.1.4-.5.9-1.1,1.2-1.7.7-1.4-.4-3.1-1.9-3.1-1.3,0-2-.2-2.8-.8,1.1-.6,2.1-1.1,3.1-1.7.6.2.7.7.7,1.2,0,.4.2.7.4,1.1.5.7,1,1.4,1.5,2.1.3.4.2.7,0,1.1-.5.7-.9,1.5-1.3,2.1.4.8.7,1.4,1.1,2,.1.2.3.3.5.4.6.2,1.3.2,1.9,0,.4-.1.8-.3,1.2-.4.8-.1,1.1-.7,1.4-1.3.3-.6,0-1.2-.6-1.6-.3-.2-.6-.3-.8-.5,0,0,0-.1,0-.3.5-.1.9-.1,1.4-.3.4-.2.8-.6,1.2-.9-.6-.4-1.1-.7-1.6-1.1-1.1-.7-2.2-1.3-3.3-1.9-.7-.4-.9-.9-1-1.6,0-.6,0-1.3-.2-1.8-.1-.4-.4-.9-.7-1.1-.8-.7-1.8-1.2-2.9-1.3-.9-.1-1.8-.2-2.6-.3-1.5-.3-3-.6-4.5-1-.6-.1-1.2-.2-1.8-.3-1.4-.2-2.6,0-3.9.6-1.8.7-3.7,1.2-5.6,1.7-10,2.7-20.1,5.1-30.3,7-2.9.6-5.9,1-8.8,1.4-3.5.5-6.9,0-10.2-.8-3.7-1-7.5-2-11.2-2.9-3.1-.8-6.3-1.3-9.5-1.5-3.5-.2-6.9.4-10.3,1-3.8.7-7.4,2-11.1,3.4-6.6,2.5-13.3,4.5-20.3,5.6-2,.3-4.1.5-6.1.7-2.9.2-5.8.2-8.6-.2-2.1-.3-4.1-.7-6-1.8-1.3-.7-2.3-1.6-2.7-3.1-.2-.6-.2-1.4,0-2,.3-1.4,1-2.5,1.9-3.5,1.4-1.6,3.1-2.8,4.8-3.8,2.3-1.3,4.8-2.3,7.3-3.1.9-.3,1.9-.6,2.8-1,.4-.2.8-.4,1.2-.6,2.2-1.3,2.4-2.7.8-4.6-.1-.2-.3-.3-.4-.5-.2-.3-.3-.7,0-1,.3-.3.6-.5,1-.4.1,0,.3,0,.4.1,1.8.8,3,4.1,1.2,5.8-.7.7-1.6,1.2-2.4,1.6-1.2.6-2.6,1-3.9,1.4-2.7.9-5.3,2-7.8,3.5-1.4.9-2.7,1.8-3.8,3-.7.8-1.3,1.6-1.6,2.6-.4,1.4-.2,2.7.9,3.8.7.8,1.7,1.3,2.7,1.6,2.1.8,4.3,1.1,6.5,1.2,7.7.3,15.1-1,22.3-3.4,4.7-1.6,9.4-3.3,14.1-4.9,4.4-1.5,9-2.4,13.6-2.8,3.2-.3,6.3,0,9.5.6,4.4.7,8.7,2,13,3.2,2.6.7,5.3,1.3,8,1.5,1.9.1,3.9,0,5.8-.4,9.8-1.4,19.5-3.7,29.2-6.1,3.7-.9,7.5-2,11.2-3,.9-.2,1.7-.6,2.6-.9,1.4-.6,2.8-.8,4.3-.4,1.5.4,3,.9,4.5,1.2,1.4.3,2.8.5,4.3.6,1.3.1,2.4.6,3.4,1.4.8.6,1.3,1.4,1.4,2.4,0,.4.2.7.1,1.1,0,.8.3,1.2,1,1.6,1.4.8,2.7,1.6,4,2.4,1.3.8,1.5,1.6.9,3-1,2-2.2,3.9-3.9,5.5-1.4,1.3-2.9,1.8-4.8,1.3-.7-.2-1.4-.4-2.2-.6-.8-.2-1.6-.5-2.5-.6-.6,0-1.4-.1-1.9.1-3.7,1.4-7.5,2.1-11.3,3-3.8.9-7.4,2.1-11,3.7-2.4,1-4.5,2.4-6.2,4.3-2.8,3-5.9,5.8-9.4,8.2-.3.2-.6.5-1,.6-.2,0-.5,0-.7-.2-.3-.2-.2-.6,0-.8.2-.2.4-.4.7-.6,3.1-2.2,6-4.8,8.6-7.6,2.6-2.9,5.8-4.8,9.3-6.1,4-1.5,8.1-2.7,12.2-3.6.8-.2,1.7-.2,2.5-.3.9-.2,1.9-.3,2.8-.6.9-.2,1.7-.5,2.5-.8,1-.4,2-.4,3.1,0,.8.3,1.7.6,2.5.8.9.3,1.8.5,2.7.7.6.1,1.2,0,1.7-.3,1.1-.6,1.9-1.6,2.6-2.6,0,0,0-.1-.1-.2Z" fill="#231f20"></path><path d="M183.2,61.8c0,2.1,0,4.2,0,6.3,0,1.3-1,1.9-2.2,1.4-.4-.2-.6-.5-.7-1,0-.3,0-.6,0-.9,0-3.4,0-6.9,0-10.3,0-1.9,0-3.9.6-5.8.9-3.4,3.1-5.3,6.5-6,.6-.1,1.1-.1,1.7-.1,1.6,0,3.1,0,4.7.2,3.2.4,5.9,2.9,6.6,6.1.3,1.2.5,2.5.5,3.7,0,4.2,0,8.5.1,12.7,0,.3,0,.5-.1.8-.3.8-.8.7-1.9.7-.6,0-.9-.5-.9-1.1,0-.2,0-.4,0-.5,0-3.4,0-6.7,0-10.1,0-1.5,0-3.1-.3-4.6-.2-1.7-1-3.2-2.6-4.2-.9-.6-1.8-.9-2.9-.9-1,0-2,0-3,0-3.2,0-5.3,2-5.8,4.9-.3,1.5-.3,3-.3,4.5,0,1.5,0,2.9,0,4.4Z" fill="#d5382d"></path><path d="M174.8,57.5c0-3.6-1.4-6.2-4-8.1-.3-.2-.7-.4-1.1-.6-.5-.3-1-.5-1.4-.8-.3-.2-.5-.6-.4-1,.1-.4.6-.8,1-.8.4,0,.9.1,1.3.3,2.3,1.2,4.1,2.8,5.3,5.1,2.2,4.2,2,8.3-.6,12.2-1.8,2.8-4.5,4.6-7.8,5.1-4.7.8-8.8-.5-11.9-4.3-3.5-4.3-3.8-10.3,0-14.9,1.2-1.5,2.7-2.6,4.4-3.3.3-.1.6-.2.9-.2.5,0,.8.2,1,.7.1.5,0,.9-.4,1.2-.2.2-.5.3-.8.4-3.1,1.6-5.1,4-5.6,7.6-.5,4.1,1.2,7.3,4.7,9.5,3.5,2.2,8.4,1.8,11.6-.9,1.8-1.5,3-3.4,3.4-5.7.1-.6.1-1.1.1-1.4Z" fill="#d5382d"></path><path d="M95,54.5v-3.2h1.9v17.3c-.3,0-.6,0-.8,0-.3,0-.7,0-1.1,0v-3c-2.5,2.6-5.3,3.9-8.9,3.4-2.4-.3-4.3-1.6-5.8-3.4-2.8-3.4-2.8-9.1,1.3-12.7,3.2-2.8,9.4-3.6,13.4,1.5ZM95.2,60c0-4.2-3.2-7.4-7.3-7.4-4.5,0-7.4,3.5-7.4,7.4,0,4.1,3.4,7.4,7.4,7.4,3.5,0,7.3-2.5,7.3-7.4Z" fill="#231f20"></path><path d="M141.9,54.7c-.5.3-1,.6-1.5.9-.2-.2-.5-.5-.7-.7-3.1-3.1-8.6-3.1-11.7,0-4,3.9-2.2,10.7,3.2,12.2,3.3.9,6.2.3,8.7-2.2.1-.1.3-.3.5-.5.5.3.9.6,1.5,1-.2.3-.4.6-.6.8-1.6,1.7-3.6,2.6-5.8,2.9-1.5.2-3,.2-4.5-.2-3.7-.8-7.6-4.3-7.1-9.6.3-3.7,3-7,6.9-8,2.7-.8,5.4-.5,8,.7,1.3.6,2.4,1.5,3.1,2.8Z" fill="#231f20"></path><path d="M118.2,64.3c.6.4,1.1.7,1.6,1-.2.3-.4.6-.6.8-1.6,1.7-3.6,2.6-5.9,2.9-1.5.2-2.9.2-4.4-.2-3.6-.9-6.1-3.1-7-6.8-1-4.6,1.6-9.2,6.2-10.7,2.9-1,5.8-.7,8.5.6,1.3.6,2.3,1.5,3.1,2.8-.5.3-1,.6-1.6,1-.2-.3-.3-.5-.5-.7-2.7-2.7-7.5-3.2-10.6-1-2.4,1.7-3.6,4.1-3.2,7,.4,3.1,2.2,5.2,5.2,6.1,3.3,1,6.3.3,8.7-2.2.1-.1.2-.3.4-.5Z" fill="#231f20"></path><path d="M35.3,25.4c1.9,0,3.8,0,5.7,0,.6,0,1,.3,1.2.9.3,1.1.6,2.1,1,3.2.6,2,1.3,3.9,2.3,5.7,2.5,4.6,6.2,7.6,11.4,8.7,1.1.2,2.2.5,3.2.8,3.8,1,5.9,3.5,6.4,7.3.3,2.2.5,2.4,2.7,2.5,1,0,2.1.1,3.1.2.6,0,1.2.2,1.7.4.4.2.8.4,1.2.7.3.2.6.5.3.9-.3.4-.6.1-.9,0-2-1-4.2-1.5-6.4-1.4-1.6,0-2.5-.7-3-2.3-.1-.5-.2-1-.3-1.5-.4-2.1-1.5-3.6-3.3-4.7-1.7-1.1-3.7-1.7-5.6-2.2-1-.3-2-.5-2.9-.8-2.7-.8-4.9-2.3-6.7-4.4-2.7-3.1-4.3-6.6-5-10.6,0-.2,0-.3,0-.5-.3-1.5-.9-2-2.4-2.2-1-.1-2.1-.2-3.1-.3-.2,0-.4,0-.6-.2v-.3Z" fill="#231f20"></path><path d="M163.7,51.3c0-2.4,0-4.8,0-7.2,0-.3,0-.7.1-1,.2-.5.6-.8,1.1-.8.5,0,.9.2,1,.8.1.8.1,1.5.1,2.3,0,1.6,0,3.3,0,4.9,0,2.7,0,5.4,0,8.1,0,.4,0,.8-.2,1.2-.1.5-.4.7-1,.7-.6,0-.9-.1-1-.7-.1-.3-.2-.7-.2-1.1,0-2.4,0-4.9,0-7.3Z" fill="#d5382d"></path><path d="M108,75.8v-3.9h1.4v10.8h-1.3c0-.3,0-.5-.1-.8-.1,0-.2,0-.3.1-1.2.9-2.5,1.1-3.9.8-1.7-.4-2.8-1.4-3.3-3-.6-2.1.7-4.3,2.9-5,1.5-.5,2.9-.2,4.7,1ZM104.9,81.7c.2,0,.3,0,.5,0,1.6-.2,2.8-1.6,2.6-3.1-.2-1.4-1.2-2.5-2.7-2.6-1.6-.2-2.9.6-3.4,2,0,.2-.1.4-.1.7-.1,1.7,1.3,3.1,3.1,3.1Z" fill="#231f20"></path><path d="M199.6,75.8c0-.4,0-.6.1-.9h1.3v7.9h-1.3c0-.2,0-.5-.1-.8-.1,0-.3,0-.4.2-1.2.8-2.5,1-3.8.8-2.5-.5-4.1-3.1-3.2-5.4.6-1.6,1.9-2.6,3.6-2.8,1.2-.2,2.4,0,3.4.8.1,0,.2.1.5.3ZM196.5,81.7c.2,0,.3,0,.5,0,1.3-.1,2.5-1.2,2.6-2.4.2-1.4-.6-2.7-1.9-3.1-1.1-.4-2.2-.3-3.2.4-1.5,1.1-1.6,3.1-.2,4.3.6.6,1.3.9,2.2.8Z" fill="#231f20"></path><path d="M165.6,82.8h-1.3c0-.3,0-.5-.1-.8-.3.2-.5.3-.8.5-1.8,1-4.1.8-5.6-.7-2.1-2.1-1.4-5.5,1.4-6.7,1.6-.7,3.1-.6,4.6.4.1,0,.2.2.4.2,0,0,0,0,.1,0,0-.2,0-.5,0-.8h1.4c0,2.6,0,5.2,0,7.9ZM161.1,81.7c.2,0,.3,0,.5,0,1.2-.1,2.2-.9,2.5-2,.3-1.2,0-2.2-.9-3-1.2-1-3.2-1-4.4.1-.4.4-.7.9-.8,1.5-.4,1.8,1.1,3.4,3.1,3.4Z" fill="#231f20"></path><path d="M55.8,89c.1-1.1,1-2,2.2-2.3.6-.1,1.2-.3,1.8-.4.4,0,.8-.2.8-.7.1-.5-.2-.8-.6-1.1-.3-.2-.7-.4-1.1-.7-.7-.5-1.4-.9-2.1-1.5-1.1-1-1.4-2.3-.9-3.6.4-.9.9-1.9,1.5-2.6,1.3-1.5,2.6-2.9,4-4.2,1.8-1.7,3.8-3.3,5.7-5,.2-.2.4-.4.6-.4.2,0,.5,0,.6.1,0,.1,0,.4,0,.6-.1.2-.4.4-.6.5-3.1,2.3-5.8,5.1-8.4,8-.7.8-1.3,1.6-1.8,2.5-.9,1.6-.7,2.7.6,3.9.6.5,1.2.9,1.8,1.3.3.2.6.4.9.6,1,.8,1,1.9,0,2.7-.3.2-.7.4-1,.6-1.3.4-2.5,1-3.4,2-.1.1-.5.2-.7.2-.1,0-.2-.3-.2-.4Z" fill="#231f20"></path><path d="M146.6,51.3h1.7c.2.7.2,16.3,0,17.4h-1.7c-.2-.7-.2-16.3,0-17.4Z" fill="#231f20"></path><path d="M117,74.9h1.4c0,.3,0,.6,0,.8,0,1.3,0,2.5,0,3.8,0,.9.4,1.7,1.3,2,1,.4,2,.3,2.9-.4.5-.4.6-1,.6-1.6,0-1.2,0-2.4,0-3.6,0-.3,0-.6,0-.9h1.4c0,0,0,.2,0,.3,0,1.5,0,3,0,4.5,0,1.9-1.2,3-3,3.2-.7,0-1.5,0-2.3-.2-1.2-.3-1.9-1.1-2.2-2.3-.2-.9-.3-4.5,0-5.6Z" fill="#231f20"></path><path d="M139.8,80.4c.4.2.7.4,1.1.7-.3.3-.5.6-.7.8-1.8,1.5-5,1.5-6.8,0-1.8-1.5-1.9-4.2-.2-5.9,1.7-1.6,5-1.8,6.8-.4.3.3.6.6,1,1-.4.3-.8.5-1.2.7-.7-.9-1.6-1.3-2.8-1.4-.8,0-1.5,0-2.1.4-.9.6-1.5,1.4-1.5,2.5,0,1.2.7,2,1.7,2.5,1.1.6,3.2.5,4.3-.6.1-.1.3-.2.4-.4Z" fill="#231f20"></path><path d="M85.2,71.9v1.3c-.4,0-.7-.2-1-.2-.5,0-.8.1-.8.6,0,.7,0,1.5,0,2.3.6,0,1.2,0,1.8,0v1.3h-1.8v5.5h-1.4v-5.4c-.4,0-.7,0-1.1-.1v-1.2c.3,0,.7,0,1.1-.1,0-.7,0-1.3,0-2,0-1.7.8-2.4,2.5-2.1.2,0,.5.1.8.2Z" fill="#231f20"></path><path d="M66.7,24.3c.2,0,.4,0,.6,0,1.6.4,3.2.8,4.7,1.6,1.6.8,2.9,2,3.9,3.5,1,1.6,1.6,3.3,1.8,5.2.2,1.5-.2,3-1.1,4.3,0-.1,0-.3,0-.4.4-2,.3-3.9-.5-5.9-1.5-3.6-4-6.1-7.8-7.4-.6-.2-1.1-.4-1.7-.6,0-.1,0-.2,0-.3Z" fill="#231f20"></path><path d="M143.2,12.4c-.3.7,0,1,.4,1.2.9.6,1.8,1,2.9,1.2.1-.1.2-.3.3-.4.2-.2.4-.4.7-.1.2.2.3.4.3.7,0,.8-1,1.5-1.8,1.2-.6-.2-1.2-.2-1.9,0,.1.2.2.5.3.6.1.1.3.2.5.3.7.5.7,1.1.1,1.7-.3.3-.6.5-.9.7-1.3.8-2.3,1.8-3.2,3-.5.6-1.1,1.2-1.6,1.8-.1.1-.3.2-.5.4-.3-.4-.2-.7,0-1,1-1.2,2-2.4,3.1-3.6.6-.6,1.3-1,1.9-1.5.3-.2.6-.5,1-.8-.2-.2-.4-.3-.5-.4-.6-.3-.9-.8-1-1.4,0-.7-.4-1.4-.8-2,0-.1-.2-.2-.2-.3-.3-.7-.1-1.1.9-1.4Z" fill="#231f20"></path><path d="M91.8,74.9h1.4v7.8h-1.4v-7.8Z" fill="#231f20"></path><path d="M148,82.7v-7.8h1.4v7.8h-1.4Z" fill="#231f20"></path><path d="M146.7,25.1c-1.2.2-2.3.3-3.4.5-1,.2-1.7.7-2.2,1.6-.3.6-.8,1.1-1.6,1.1-.4,0-.8.3-1.1.5-.5.2-.9.2-1.3-.2-.1-.1-.1-.4,0-.5,0,0,.3-.2.4-.1,1.2.7,1.9-.2,2.5-1,.4-.5.8-1,1.3-1.5,1-1,2.2-1.6,3.5-1.7.5,0,1.1.2,1.7.4.4.2.5.5.3.9Z" fill="#231f20"></path><path d="M147.5,47.3c-1,0-1.7-.7-1.7-1.7,0-.9.7-1.7,1.7-1.7,1,0,1.8.7,1.8,1.7,0,.9-.8,1.7-1.8,1.7Z" fill="#231f20"></path><path d="M92.5,73.5c-.6,0-1-.4-1.1-.9,0-.5.5-.9,1-.9.5,0,1,.4,1,.9,0,.5-.4,1-1,1Z" fill="#231f20"></path><path d="M184,73.5c-.5,0-.9-.5-.9-1,0-.5.5-.9,1.1-.9.6,0,1,.5.9,1,0,.5-.5.9-1.1.8Z" fill="#231f20"></path><path d="M148.7,71.7c.6,0,1,.5,1,1,0,.5-.5.9-1.1.9-.5,0-1-.4-.9-.9,0-.5.5-.9,1-.9Z" fill="#231f20"></path><path d="M184.7,75s0,0,0,0h-1.3v7.9h1.3v-7.8Z" fill="#231f20"></path><path d="M174.4,75.5c0-.2-.1-.4-.2-.6h-1.3s0,0,0,0v7.7c0,0,0,.2,0,.2h1.3c0-.4,0-.7,0-1.1,0-1.3,0-2.6.2-3.9.2-1.4.9-1.9,2.4-1.7.2-.3.4-.6.7-1-1.2-.8-2.2-.3-3.1.4Z" fill="#231f20"></path></svg>